<?xml version="1.0" standalone="no"?>
<!DOCTYPE svg PUBLIC "-//W3C//DTD SVG 20010904//EN"
 "http://www.w3.org/TR/2001/REC-SVG-20010904/DTD/svg10.dtd">
<svg version="1.0" xmlns="http://www.w3.org/2000/svg"
 width="980.000000pt" height="598.000000pt" viewBox="0 0 980.000000 598.000000"
 preserveAspectRatio="xMidYMid meet">

<g transform="translate(0.000000,598.000000) scale(0.100000,-0.100000)"
fill="#000000" stroke="none">
<path d="M5050 5952 c-31 -15 -1179 -531 -2552 -1147 -1374 -616 -2496 -1124
-2495 -1128 1 -5 262 -117 580 -249 l577 -241 0 -536 0 -536 -45 -28 c-183
-116 -195 -390 -23 -524 20 -16 43 -32 52 -38 15 -9 5 -61 -99 -522 -63 -281
-115 -519 -115 -527 0 -14 39 -16 350 -16 193 0 350 4 350 9 0 4 -52 239 -115
521 -63 283 -115 516 -115 519 0 3 19 15 42 25 57 27 115 88 146 155 34 73 36
182 5 253 -27 60 -91 129 -148 159 l-45 24 0 479 c0 451 1 478 18 473 9 -3
185 -75 391 -161 205 -86 378 -156 383 -156 5 0 47 26 91 59 45 32 123 85 172
116 845 545 1679 855 2430 905 454 30 965 -63 1439 -261 422 -177 853 -450
1189 -751 51 -46 84 -69 95 -65 16 4 1328 530 1920 769 149 61 272 113 272
117 0 5 -4666 2322 -4688 2328 -4 1 -32 -11 -62 -25z"/>
<path d="M4675 3294 c-461 -47 -810 -133 -1175 -290 -236 -102 -521 -274 -690
-417 l-75 -63 -3 -955 -2 -955 63 -52 c335 -272 906 -468 1552 -532 311 -31
801 -29 1130 5 489 51 946 164 1370 340 103 42 337 160 408 205 l47 30 0 959
0 960 -82 64 c-454 354 -1054 591 -1730 683 -108 15 -712 28 -813 18z m688
-2024 c570 -34 1020 -123 1268 -252 144 -74 204 -149 181 -226 -97 -321 -1460
-522 -2622 -386 -523 61 -898 177 -1028 317 -52 58 -60 94 -32 153 96 197 686
353 1500 397 143 8 579 6 733 -3z"/>
</g>
</svg>
