<?xml version="1.0" standalone="no"?>
<!DOCTYPE svg PUBLIC "-//W3C//DTD SVG 20010904//EN"
 "http://www.w3.org/TR/2001/REC-SVG-20010904/DTD/svg10.dtd">
<svg version="1.0" xmlns="http://www.w3.org/2000/svg"
 width="600.000000pt" height="300.000000pt" viewBox="0 0 600.000000 300.000000"
 preserveAspectRatio="xMidYMid meet">
<metadata>
Created by potrace 1.16, written by Peter Selinger 2001-2019
</metadata>
<g transform="translate(0.000000,300.000000) scale(0.100000,-0.100000)"
fill="#000000" stroke="none">
<path d="M618 2150 c-76 -19 -178 -80 -241 -143 -166 -166 -204 -403 -100
-611 63 -125 162 -210 303 -262 63 -23 91 -28 170 -28 82 1 107 5 180 32 202
76 336 253 348 462 6 105 -7 167 -53 265 -50 105 -135 189 -249 246 -86 42
-89 43 -204 46 -64 1 -134 -2 -154 -7z m312 -57 c122 -59 220 -190 249 -331
21 -103 72 -92 -429 -92 -412 0 -440 1 -440 18 1 43 31 154 55 203 55 109 118
167 232 215 51 21 71 24 163 22 95 -3 111 -6 170 -35z m260 -514 c0 -39 -31
-144 -62 -207 -36 -72 -121 -157 -190 -190 -102 -47 -244 -52 -354 -11 -72 27
-170 118 -213 198 -28 54 -60 166 -61 214 0 16 28 17 440 17 l440 0 0 -21z"/>
<path d="M4630 2135 c0 -7 -8 -23 -18 -35 -15 -18 -33 -24 -100 -30 -146 -15
-243 -81 -303 -208 -45 -94 -62 -187 -56 -322 3 -96 8 -126 31 -182 33 -79 83
-135 152 -169 43 -21 63 -24 159 -24 103 0 113 2 163 30 71 39 136 112 158
178 11 31 18 82 18 127 0 136 -50 227 -155 285 -48 27 -63 30 -144 30 -81 0
-95 -3 -138 -28 -27 -16 -51 -27 -53 -24 -8 7 41 99 62 119 29 26 67 37 160
48 130 14 192 59 209 151 l7 35 -59 13 c-91 20 -93 20 -93 6z m-40 -493 c86
-63 84 -243 -3 -306 -40 -30 -144 -30 -184 0 -48 36 -68 81 -68 156 0 58 4 72
30 110 19 26 44 48 65 56 45 16 128 8 160 -16z"/>
<path d="M1550 1640 l0 -470 540 0 540 0 0 470 0 470 -95 0 -95 0 0 -385 0
-385 -125 0 -125 0 0 385 0 385 -95 0 -95 0 0 -385 0 -386 -127 3 -128 3 0
382 0 383 -97 0 -98 0 0 -470z"/>
<path d="M3703 1860 c-86 -18 -200 -89 -177 -109 5 -4 33 -24 62 -44 l52 -37
40 26 c22 15 60 29 84 31 40 5 48 2 76 -25 20 -20 30 -40 30 -60 0 -29 0 -29
-72 -36 -174 -17 -285 -72 -317 -159 -14 -36 -14 -118 0 -154 15 -40 67 -92
114 -114 61 -28 168 -26 230 6 47 23 64 21 65 -7 0 -5 38 -8 85 -8 l85 0 0
238 c-1 256 -6 302 -46 362 -49 74 -192 115 -311 90z m167 -443 l0 -74 -42
-19 c-24 -11 -63 -19 -90 -18 -61 1 -88 23 -88 75 0 46 41 85 98 94 20 4 44 8
52 10 8 1 27 3 43 4 l27 1 0 -73z"/>
<path d="M5131 1855 c-105 -30 -172 -92 -213 -198 -18 -49 -23 -81 -22 -152 0
-81 4 -98 34 -163 39 -86 87 -132 169 -163 76 -29 232 -23 303 10 53 26 145
118 131 132 -5 5 -35 24 -67 44 l-58 35 -24 -30 c-34 -40 -101 -64 -163 -58
-64 6 -96 28 -123 82 -37 77 -39 76 217 76 l225 0 0 45 c0 148 -72 278 -180
324 -67 29 -160 35 -229 16z m180 -161 c28 -27 51 -80 42 -96 -5 -9 -257 -11
-266 -2 -17 17 45 106 88 125 38 17 104 3 136 -27z"/>
<path d="M2782 1513 l3 -338 214 -3 c247 -3 296 6 361 64 48 43 64 89 58 162
-5 52 -8 59 -52 97 l-46 41 21 20 c67 60 65 166 -4 242 -39 42 -102 52 -339
52 l-218 0 2 -337z m383 197 c32 -12 45 -46 32 -83 -13 -39 -45 -48 -146 -45
l-86 3 -3 54 c-2 29 -1 60 2 67 6 17 160 20 201 4z m24 -271 c34 -12 47 -42
37 -84 -9 -36 -42 -45 -162 -45 l-104 0 0 63 c0 35 3 67 7 70 11 11 188 8 222
-4z"/>
</g>
</svg>
