<?xml version="1.0" standalone="no"?>
<!DOCTYPE svg PUBLIC "-//W3C//DTD SVG 20010904//EN"
 "http://www.w3.org/TR/2001/REC-SVG-20010904/DTD/svg10.dtd">
<svg version="1.0" xmlns="http://www.w3.org/2000/svg"
 width="114.000000pt" height="122.000000pt" viewBox="0 0 114.000000 122.000000"
 preserveAspectRatio="xMidYMid meet">

<g transform="translate(0.000000,122.000000) scale(0.100000,-0.100000)"
fill="#000000" stroke="none">
<path d="M502 1089 c-183 -24 -321 -123 -400 -288 -33 -69 -36 -83 -40 -186
-3 -85 0 -126 13 -171 31 -109 100 -203 200 -268 56 -37 186 -86 230 -86 14 0
24 -3 22 -7 -9 -14 226 4 293 22 93 24 223 93 215 114 -13 34 -137 241 -145
241 -4 0 -13 -6 -19 -14 -23 -27 -134 -69 -199 -74 -47 -4 -63 -2 -58 6 5 8 2
10 -9 6 -16 -6 -65 20 -65 35 0 4 119 91 264 192 l265 184 -22 39 c-36 65
-132 160 -194 194 -106 56 -229 77 -351 61z m168 -281 c19 -13 35 -28 37 -34
3 -10 -237 -187 -272 -201 -10 -3 -18 5 -25 22 -30 78 16 186 95 221 49 22
127 18 165 -8z"/>
</g>
</svg>
